<svg width="266" height="299" viewBox="0 0 266 299" fill="none" xmlns="http://www.w3.org/2000/svg">
<g clip-path="url(#clip0)">
<path d="M242.83 149.281C254.256 162.26 261.695 178.259 264.256 195.36C266.817 212.462 264.39 229.938 257.267 245.695C250.144 261.452 238.627 274.819 224.097 284.194C209.568 293.569 192.642 298.554 175.35 298.551H44.15L54.37 267.621L64.29 237.621H171.53C175.368 237.692 179.183 236.998 182.75 235.578C186.317 234.159 189.565 232.042 192.305 229.353C195.045 226.664 197.221 223.455 198.707 219.915C200.192 216.375 200.957 212.575 200.957 208.736C200.957 204.897 200.192 201.096 198.707 197.556C197.221 194.016 195.045 190.808 192.305 188.118C189.565 185.429 186.317 183.313 182.75 181.893C179.183 180.474 175.368 179.779 171.53 179.851H128.53L148.68 118.851H171.5C175.338 118.922 179.153 118.228 182.72 116.808C186.287 115.389 189.535 113.272 192.275 110.583C195.015 107.894 197.191 104.685 198.677 101.145C200.162 97.6054 200.927 93.8048 200.927 89.9657C200.927 86.1266 200.162 82.326 198.677 78.7859C197.191 75.2459 195.015 72.0375 192.275 69.3482C189.535 66.6589 186.287 64.5427 182.72 63.1232C179.153 61.7036 175.338 61.0093 171.5 61.0807H122.6L103.5 118.851L83.34 179.851L64.24 237.631H0L19.15 179.781L39.31 118.781L58.34 60.9707L68.29 30.8707L78.5 -0.0292968H175.35C192.642 -0.0300243 209.567 4.95677 224.096 14.3332C238.625 23.7096 250.141 37.0776 257.264 52.8344C264.387 68.5912 266.813 86.0679 264.253 103.169C261.693 120.271 254.255 136.271 242.83 149.251V149.281Z" fill="url(#paint0_linear)"/>
<path d="M265.24 89.8907C265.245 78.0833 262.924 66.3905 258.409 55.4805C253.894 44.5705 247.273 34.657 238.925 26.3065C230.578 17.9561 220.666 11.3322 209.758 6.81337C198.849 2.29456 187.157 -0.0306112 175.35 -0.0292963H78.5L68.29 30.8707L58.34 60.9707L39.26 118.771L19.1 179.771L0 237.561H32.42L100.71 30.9007H169.57C184.021 30.9032 197.996 36.0665 208.978 45.4602C219.959 54.8539 227.225 67.8605 229.466 82.1367C231.707 96.4129 228.776 111.02 221.201 123.327C213.626 135.633 201.905 144.83 188.15 149.261C200.217 153.184 210.759 160.773 218.31 170.971C226.056 181.374 230.233 194.001 230.22 206.971C230.173 223.041 223.767 238.44 212.404 249.804C201.04 261.168 185.641 267.573 169.57 267.621H54.32L44.15 298.551H175.35C192.64 298.55 209.563 293.562 224.09 284.186C238.617 274.811 250.132 261.444 257.254 245.689C264.376 229.934 266.804 212.46 264.245 195.36C261.687 178.26 254.251 162.261 242.83 149.281C257.306 132.887 265.278 111.761 265.24 89.8907V89.8907Z" fill="url(#paint1_linear)"/>
</g>
<defs>
<linearGradient id="paint0_linear" x1="20.18" y1="274.641" x2="253.71" y2="41.1207" gradientUnits="userSpaceOnUse">
<stop stop-color="#3076E3"/>
<stop offset="1" stop-color="#32DFE4"/>
</linearGradient>
<linearGradient id="paint1_linear" x1="132.62" y1="298.551" x2="132.62" y2="0.000705437" gradientUnits="userSpaceOnUse">
<stop stop-color="white" stop-opacity="0"/>
<stop offset="1" stop-color="white" stop-opacity="0.2"/>
</linearGradient>
<clipPath id="clip0">
<rect width="265.24" height="298.55" fill="white"/>
</clipPath>
</defs>
</svg>
